<?xml version="1.0" standalone="no"?><!DOCTYPE svg PUBLIC "-//W3C//DTD SVG 1.1//EN" "http://www.w3.org/Graphics/SVG/1.1/DTD/svg11.dtd"><svg t="1660870574357" class="icon" viewBox="0 0 1024 1024" version="1.1" xmlns="http://www.w3.org/2000/svg" p-id="10845" width="48" height="48" xmlns:xlink="http://www.w3.org/1999/xlink"><defs><style type="text/css">@font-face { font-family: feedback-iconfont; src: url("//at.alicdn.com/t/font_1031158_u69w8yhxdu.woff2?t=1630033759944") format("woff2"), url("//at.alicdn.com/t/font_1031158_u69w8yhxdu.woff?t=1630033759944") format("woff"), url("//at.alicdn.com/t/font_1031158_u69w8yhxdu.ttf?t=1630033759944") format("truetype"); }
</style></defs><path d="M175.97 922.75V176.01C175.97 114.15 226.12 64 287.98 64h448.04c61.86 0 112.01 50.15 112.01 112.01v746.74c-0.05 20.62-16.81 37.3-37.43 37.25a37.29 37.29 0 0 1-22.68-7.75l-230-178.84c-27-21.05-64.85-21.05-91.85 0l-230 178.84c-16.34 12.58-39.78 9.53-52.36-6.81-5-6.51-7.72-14.48-7.74-22.69z" fill="#2a9d8f" opacity=".89" p-id="10846" data-spm-anchor-id="a313x.7781069.0.i17" class="selected"></path><path d="M736.02 64H512v691.86a74.677 74.677 0 0 1 45.92 15.68l230 178.84c16.32 12.6 39.77 9.59 52.37-6.72a37.32 37.32 0 0 0 7.74-20.9V176.02C848.03 114.15 797.88 64 736.02 64z" fill="#2a9d8f" opacity=".89" p-id="10847" data-spm-anchor-id="a313x.7781069.0.i16" class="selected"></path></svg>