<svg t="1661483354357" class="icon" viewBox="0 0 1024 1024" version="1.1" xmlns="http://www.w3.org/2000/svg" p-id="2403" width="16" height="16">
  <path d="M341.2992 399.0528c0 94.208 76.3904 170.7008 170.7008 170.7008s170.7008-76.3904 170.7008-170.7008c0-15.6672-12.6976-28.4672-28.4672-28.4672s-28.4672 12.6976-28.4672 28.4672c0 62.8736-50.8928 113.7664-113.7664 113.7664S398.2336 461.824 398.2336 399.0528c0-15.6672-12.6976-28.4672-28.4672-28.4672s-28.4672 12.6976-28.4672 28.4672zM227.5328 57.6512h568.9344c31.4368 0 56.9344 25.4976 56.9344 56.9344v794.8288c0 31.4368-25.4976 56.9344-56.9344 56.9344-13.1072 0-25.8048-4.5056-35.9424-12.8L548.0448 780.3904c-20.8896-16.9984-50.8928-16.9984-71.8848 0L263.4752 953.5488c-24.3712 19.8656-60.2112 16.1792-80.0768-8.192-8.2944-10.1376-12.8-22.8352-12.8-35.9424V114.5856c0.1024-31.4368 25.4976-56.9344 56.9344-56.9344z" fill="#2a9d8f" p-id="2404"></path>
</svg>